#N canvas 8 158 1585 1099 10;
#X obj 333 131 /;
#X msg 308 101 60000;
#X floatatom 333 167 5 0 0 0 - - -, f 5;
#X floatatom 319 34 5 40 500 0 BPM - -, f 5;
#X obj 319 69 t b f;
#N canvas 0 50 450 250 (subpatch) 0;
#X array snare 6276 float 0;
#X coords 0 1 6275 -1 200 80 1 0 0;
#X restore 25 167 graph;
#N canvas 0 50 450 250 (subpatch) 0;
#X array kick 16514 float 0;
#X coords 0 1 16513 -1 200 80 1 0 0;
#X restore 24 272 graph;
#X obj 27 120 soundfiler;
#X obj 316 737 tabplay~ snare;
#X obj 273 178 tgl 15 0 empty empty empty 17 7 0 10 -262144 -1 -1 0
1;
#X floatatom 273 270 5 0 15 0 - - -, f 5;
#X obj 11 692 spigot;
#X obj 492 638 tgl 15 1 empty empty empty 17 7 0 10 -262144 -1 -1 0
1;
#X obj 509 638 tgl 15 1 empty empty empty 17 7 0 10 -262144 -1 -1 0
1;
#X obj 526 638 tgl 15 1 empty empty empty 17 7 0 10 -262144 -1 -1 1
1;
#X obj 544 638 tgl 15 1 empty empty empty 17 7 0 10 -262144 -1 -1 0
1;
#X obj 63 692 spigot;
#X obj 114 692 spigot;
#X obj 165 693 spigot;
#X obj 562 638 tgl 15 1 empty empty empty 17 7 0 10 -262144 -1 -1 0
1;
#X obj 579 638 tgl 15 1 empty empty empty 17 7 0 10 -262144 -1 -1 0
1;
#X obj 596 638 tgl 15 1 empty empty empty 17 7 0 10 -262144 -1 -1 1
1;
#X obj 614 638 tgl 15 1 empty empty empty 17 7 0 10 -262144 -1 -1 0
1;
#X obj 632 638 tgl 15 1 empty empty empty 17 7 0 10 -262144 -1 -1 0
1;
#X obj 649 638 tgl 15 1 empty empty empty 17 7 0 10 -262144 -1 -1 0
1;
#X obj 666 638 tgl 15 1 empty empty empty 17 7 0 10 -262144 -1 -1 1
1;
#X obj 684 638 tgl 15 1 empty empty empty 17 7 0 10 -262144 -1 -1 0
1;
#X obj 702 638 tgl 15 1 empty empty empty 17 7 0 10 -262144 -1 -1 0
1;
#X obj 719 638 tgl 15 1 empty empty empty 17 7 0 10 -262144 -1 -1 0
1;
#X obj 736 638 tgl 15 1 empty empty empty 17 7 0 10 -262144 -1 -1 1
1;
#X obj 754 638 tgl 15 1 empty empty empty 17 7 0 10 -262144 -1 -1 0
1;
#X obj 190 637 sel 0 1 2 3 4 5 6 7 8 9 10 11 12 13 14 15;
#X obj 214 693 spigot;
#X obj 266 693 spigot;
#X obj 317 693 spigot;
#X obj 368 694 spigot;
#X obj 416 694 spigot;
#X obj 468 694 spigot;
#X obj 519 694 spigot;
#X obj 570 695 spigot;
#X obj 619 695 spigot;
#X obj 671 695 spigot;
#X obj 722 695 spigot;
#X obj 773 696 spigot;
#X obj 273 378 spigot;
#X obj 268 454 dac~;
#N canvas 0 50 450 250 (subpatch) 0;
#X array hihat 6549 float 2;
#X coords 0 1 6549 -1 200 80 1 0 0;
#X restore 25 376 graph;
#X obj 273 402 tabplay~ hihat;
#X obj 35 550 spigot;
#X obj 545 491 tgl 15 1 empty empty empty 17 7 0 10 -262144 -1 -1 1
1;
#X obj 562 491 tgl 15 1 empty empty empty 17 7 0 10 -262144 -1 -1 0
1;
#X obj 579 491 tgl 15 1 empty empty empty 17 7 0 10 -262144 -1 -1 0
1;
#X obj 597 491 tgl 15 1 empty empty empty 17 7 0 10 -262144 -1 -1 0
1;
#X obj 87 550 spigot;
#X obj 138 550 spigot;
#X obj 189 551 spigot;
#X obj 615 491 tgl 15 1 empty empty empty 17 7 0 10 -262144 -1 -1 1
1;
#X obj 632 491 tgl 15 1 empty empty empty 17 7 0 10 -262144 -1 -1 1
1;
#X obj 649 491 tgl 15 1 empty empty empty 17 7 0 10 -262144 -1 -1 0
1;
#X obj 667 491 tgl 15 1 empty empty empty 17 7 0 10 -262144 -1 -1 0
1;
#X obj 685 491 tgl 15 1 empty empty empty 17 7 0 10 -262144 -1 -1 1
1;
#X obj 702 491 tgl 15 1 empty empty empty 17 7 0 10 -262144 -1 -1 0
1;
#X obj 719 491 tgl 15 1 empty empty empty 17 7 0 10 -262144 -1 -1 0
1;
#X obj 737 491 tgl 15 1 empty empty empty 17 7 0 10 -262144 -1 -1 1
1;
#X obj 755 491 tgl 15 1 empty empty empty 17 7 0 10 -262144 -1 -1 0
1;
#X obj 772 491 tgl 15 1 empty empty empty 17 7 0 10 -262144 -1 -1 1
1;
#X obj 789 491 tgl 15 1 empty empty empty 17 7 0 10 -262144 -1 -1 0
1;
#X obj 807 491 tgl 15 1 empty empty empty 17 7 0 10 -262144 -1 -1 0
1;
#X obj 242 490 sel 0 1 2 3 4 5 6 7 8 9 10 11 12 13 14 15;
#X obj 238 551 spigot;
#X obj 290 551 spigot;
#X obj 341 551 spigot;
#X obj 392 552 spigot;
#X obj 440 552 spigot;
#X obj 492 552 spigot;
#X obj 543 552 spigot;
#X obj 594 553 spigot;
#X obj 643 553 spigot;
#X obj 695 553 spigot;
#X obj 746 553 spigot;
#X obj 797 554 spigot;
#X obj 322 597 tabplay~ kick;
#X obj 161 11 loadbang, f 9;
#X obj 273 425 *~ 0.3;
#X obj 273 326 % 2;
#X obj 273 354 sel 0;
#X msg 149 118 \; pd dsp 1;
#N canvas 0 50 450 250 (subpatch) 0;
#X array truck1 460050 float 0;
#X coords 0 1 460049 -1 200 80 1 0 0;
#X restore 404 44 graph;
#X obj 273 208 metro 326;
#X text 386 10 size = 44100 * 16 * (60000 / BPM) / 1000;
#N canvas 0 50 450 250 (subpatch) 0;
#X array truck2 460050 float 0;
#X coords 0 1 460049 -1 200 80 1 0 0;
#X restore 403 144 graph;
#N canvas 0 50 450 250 (subpatch) 0;
#X array truck3 460050 float 0;
#X coords 0 1 460049 -1 200 80 1 0 0;
#X restore 403 244 graph;
#X obj 412 361 tabplay~ truck1;
#X obj 423 383 tabplay~ truck2;
#X obj 435 404 tabplay~ truck3;
#X obj 385 461 dac~;
#X obj 1206 33 bng 15 250 50 0 empty empty Effect_Switcher 17 7 0 10
-262144 -1 -1;
#X obj 1230 55 f 1;
#X obj 1271 55 + 1;
#X obj 394 430 hip~ 5;
#X obj 276 794 dac~;
#X obj 294 764 hip~ 5;
#X obj 1234 200 adc~;
#X obj 1174 297 *~ 0;
#X obj 1267 297 *~ 0;
#X obj 322 326 sel 0;
#X obj 325 361 tgl 15 1 empty empty empty 17 7 0 10 -262144 -1 -1 1
1;
#X obj 1257 680 dac~;
#X obj 1263 643 hip~ 5;
#X obj 1189 109 == 1;
#X obj 1109 110 == 0;
#X obj 1256 109 == 2;
#X obj 659 169 bng 15 250 50 0 empty empty Truck_Switcher 17 7 0 10
-262144 -1 -1;
#X obj 681 191 f 1;
#X obj 722 192 + 1;
#X obj 681 216 % 3;
#X obj 709 245 == 1;
#X obj 668 245 == 0;
#X obj 749 245 == 2;
#X obj 363 201 bng 15 250 50 0 empty empty empty 17 7 0 10 -262144
-1 -1;
#X obj 834 412 del;
#X floatatom 852 353 5 0 0 0 - - -, f 5;
#X obj 692 290 sel 1;
#X obj 1073 297 *~ 0;
#X obj 642 290 sel 1;
#X obj 738 290 sel 1;
#X obj 724 410 tabwrite~;
#X msg 633 366 set truck1;
#X msg 721 354 set truck2;
#X msg 765 324 set truck3;
#X obj 273 239 counter 31;
#X obj 321 294 % 16;
#X obj 852 228 sel 0;
#X obj 852 292 counter;
#X obj 852 257 metro 10;
#X obj 852 323 expr (326*16/10)-$f1;
#X obj 852 381 * 10;
#X obj 741 17 netreceive -u -b 9002;
#X obj 741 43 oscparse;
#X obj 741 71 list trim;
#X obj 881 139 print;
#X obj 756 139 print;
#X obj 717 101 route record;
#X obj 813 100 route effect;
#X obj 1206 8 loadbang;
#X obj 1266 386 *~ 20;
#X obj 1266 423 clip~ -0.7 0.7;
#X floatatom 1306 356 5 0 0 1 dist - -, f 5;
#X obj 1266 331 +~;
#X obj 808 138 s effect;
#X obj 1134 8 r effect;
#X obj 1000 350 +~;
#X obj 1010 479 +~;
#X obj 1046 336 osc~ 5;
#X obj 1046 360 *~ 0.6;
#X obj 1046 384 +~ 5;
#X obj 1023 408 vd~ chorus;
#X obj 966 434 delwrite~ chorus 30;
#X obj 1105 383 +~ 5;
#X obj 1105 409 vd~ chorus;
#X obj 1105 335 osc~ 1.4;
#X obj 1105 359 *~ 1.1;
#X obj 1117 482 +~ 5;
#X obj 1117 508 vd~ chorus;
#X obj 1117 434 osc~ 0.6;
#X obj 1117 458 *~ 1.5;
#X obj 1079 135 s \$0-chorus;
#X obj 1166 135 s \$0-clean;
#X obj 1246 135 s \$0-dist;
#X obj 1053 246 r \$0-chorus;
#X obj 1171 247 r \$0-clean;
#X obj 1272 247 r \$0-dist;
#X obj 180 465 r \$0-rhythm;
#X obj 404 333 s \$0-rhythm;
#X obj 1393 339 +~;
#X floatatom 1447 353 5 0 0 2 gain - -, f 5;
#X floatatom 1450 431 5 0 0 0 - - -, f 5;
#X obj 1449 406 line~;
#X msg 1449 381 \$1 10;
#X obj 1523 482 + 100;
#X obj 1523 458 * 15;
#X obj 1523 312 vsl 15 128 0 127 0 0 empty empty empty 0 -9 0 10 -262144
-1 -1 1667 1;
#X obj 1230 80 % 4;
#X obj 1333 109 == 3;
#X obj 1319 135 s \$0-wah;
#X obj 1369 249 r \$0-wah;
#X obj 1392 389 *~ 20;
#X obj 1391 458 vcf~ 6;
#X obj 945 137 print;
#X obj 913 101 route wah;
#X obj 1393 298 *~ 0;
#X obj 1010 507 *~ 0.7;
#X floatatom 1523 289 5 0 0 0 - - -, f 5;
#X obj 1449 203 t f b b;
#X obj 1500 259 line;
#X obj 841 197 r \$0-rhythm;
#X msg 23 43 read -resize sounds/snare.wav snare;
#X msg 47 67 read -resize sounds/kick.wav kick;
#X msg 73 90 read -resize sounds/hihat.wav hihat;
#X msg 1492 229 100;
#X msg 1526 229 0.1;
#X obj 1263 526 *~ 0.3;
#X obj 1349 522 *~ 0.3;
#X obj 635 101 route stop;
#X obj 611 149 s stop;
#X obj 271 141 r stop;
#X obj 620 126 bng 15 250 50 0 empty empty empty 17 7 0 10 -262144
-1 -1;
#X connect 0 0 2 0;
#X connect 1 0 0 0;
#X connect 2 0 88 1;
#X connect 3 0 4 0;
#X connect 4 0 1 0;
#X connect 4 1 0 1;
#X connect 8 0 101 0;
#X connect 9 0 88 0;
#X connect 10 0 84 0;
#X connect 10 0 105 0;
#X connect 10 0 131 0;
#X connect 11 0 8 0;
#X connect 12 0 11 1;
#X connect 13 0 16 1;
#X connect 14 0 17 1;
#X connect 15 0 18 1;
#X connect 16 0 8 0;
#X connect 17 0 8 0;
#X connect 18 0 8 0;
#X connect 19 0 32 1;
#X connect 20 0 33 1;
#X connect 21 0 34 1;
#X connect 22 0 35 1;
#X connect 23 0 36 1;
#X connect 24 0 37 1;
#X connect 25 0 38 1;
#X connect 26 0 39 1;
#X connect 27 0 40 1;
#X connect 28 0 41 1;
#X connect 29 0 42 1;
#X connect 30 0 43 1;
#X connect 31 0 11 0;
#X connect 31 1 16 0;
#X connect 31 2 17 0;
#X connect 31 3 18 0;
#X connect 31 4 32 0;
#X connect 31 5 33 0;
#X connect 31 6 34 0;
#X connect 31 7 35 0;
#X connect 31 8 36 0;
#X connect 31 9 37 0;
#X connect 31 10 38 0;
#X connect 31 11 39 0;
#X connect 31 12 40 0;
#X connect 31 13 41 0;
#X connect 31 14 42 0;
#X connect 31 15 43 0;
#X connect 32 0 8 0;
#X connect 33 0 8 0;
#X connect 34 0 8 0;
#X connect 35 0 8 0;
#X connect 36 0 8 0;
#X connect 37 0 8 0;
#X connect 38 0 8 0;
#X connect 39 0 8 0;
#X connect 40 0 8 0;
#X connect 41 0 8 0;
#X connect 42 0 8 0;
#X connect 43 0 8 0;
#X connect 44 0 47 0;
#X connect 47 0 83 0;
#X connect 48 0 81 0;
#X connect 49 0 48 1;
#X connect 50 0 53 1;
#X connect 51 0 54 1;
#X connect 52 0 55 1;
#X connect 53 0 81 0;
#X connect 54 0 81 0;
#X connect 55 0 81 0;
#X connect 56 0 69 1;
#X connect 57 0 70 1;
#X connect 58 0 71 1;
#X connect 59 0 72 1;
#X connect 60 0 73 1;
#X connect 61 0 74 1;
#X connect 62 0 75 1;
#X connect 63 0 76 1;
#X connect 64 0 77 1;
#X connect 65 0 78 1;
#X connect 66 0 79 1;
#X connect 67 0 80 1;
#X connect 68 0 48 0;
#X connect 68 1 53 0;
#X connect 68 2 54 0;
#X connect 68 3 55 0;
#X connect 68 4 69 0;
#X connect 68 5 70 0;
#X connect 68 6 71 0;
#X connect 68 7 72 0;
#X connect 68 8 73 0;
#X connect 68 9 74 0;
#X connect 68 10 75 0;
#X connect 68 11 76 0;
#X connect 68 12 77 0;
#X connect 68 13 78 0;
#X connect 68 14 79 0;
#X connect 68 15 80 0;
#X connect 69 0 81 0;
#X connect 70 0 81 0;
#X connect 71 0 81 0;
#X connect 72 0 81 0;
#X connect 73 0 81 0;
#X connect 74 0 81 0;
#X connect 75 0 81 0;
#X connect 76 0 81 0;
#X connect 77 0 81 0;
#X connect 78 0 81 0;
#X connect 79 0 81 0;
#X connect 80 0 81 0;
#X connect 81 0 101 0;
#X connect 82 0 196 0;
#X connect 82 0 197 0;
#X connect 82 0 198 0;
#X connect 82 0 9 0;
#X connect 82 0 86 0;
#X connect 83 0 45 0;
#X connect 83 0 45 1;
#X connect 84 0 85 0;
#X connect 85 0 44 0;
#X connect 88 0 130 0;
#X connect 92 0 99 0;
#X connect 93 0 99 0;
#X connect 94 0 99 0;
#X connect 96 0 97 0;
#X connect 97 0 98 0;
#X connect 97 0 182 0;
#X connect 98 0 97 1;
#X connect 99 0 95 0;
#X connect 99 0 95 1;
#X connect 101 0 100 0;
#X connect 101 0 100 1;
#X connect 102 0 103 0;
#X connect 102 0 104 0;
#X connect 102 0 123 0;
#X connect 102 0 190 0;
#X connect 103 0 108 0;
#X connect 104 0 148 0;
#X connect 105 0 92 0;
#X connect 105 0 93 0;
#X connect 105 0 94 0;
#X connect 106 0 44 1;
#X connect 108 0 107 0;
#X connect 108 0 107 1;
#X connect 108 0 126 0;
#X connect 109 0 167 0;
#X connect 110 0 166 0;
#X connect 111 0 168 0;
#X connect 112 0 113 0;
#X connect 112 0 120 0;
#X connect 113 0 114 0;
#X connect 113 0 115 0;
#X connect 114 0 113 1;
#X connect 115 0 117 0;
#X connect 115 0 116 0;
#X connect 115 0 118 0;
#X connect 116 0 122 0;
#X connect 117 0 124 0;
#X connect 118 0 125 0;
#X connect 119 0 130 3;
#X connect 120 0 126 0;
#X connect 121 0 136 0;
#X connect 122 0 128 0;
#X connect 122 0 126 0;
#X connect 123 0 151 0;
#X connect 124 0 127 0;
#X connect 124 0 126 0;
#X connect 125 0 129 0;
#X connect 125 0 126 0;
#X connect 127 0 126 0;
#X connect 128 0 126 0;
#X connect 129 0 126 0;
#X connect 130 0 10 0;
#X connect 131 0 173 0;
#X connect 132 0 133 3;
#X connect 132 0 134 0;
#X connect 133 0 135 0;
#X connect 134 0 133 0;
#X connect 135 0 121 0;
#X connect 136 0 120 1;
#X connect 137 0 138 0;
#X connect 138 0 139 0;
#X connect 139 0 142 0;
#X connect 139 0 143 0;
#X connect 139 0 189 0;
#X connect 139 0 203 0;
#X connect 142 0 112 0;
#X connect 142 1 141 0;
#X connect 143 0 149 0;
#X connect 143 1 140 0;
#X connect 144 0 96 0;
#X connect 145 0 146 0;
#X connect 146 0 201 0;
#X connect 147 0 145 1;
#X connect 148 0 145 0;
#X connect 150 0 96 0;
#X connect 151 0 152 0;
#X connect 151 0 157 0;
#X connect 152 0 191 0;
#X connect 153 0 154 0;
#X connect 154 0 155 0;
#X connect 155 0 156 0;
#X connect 156 0 152 1;
#X connect 158 0 159 0;
#X connect 159 0 152 1;
#X connect 160 0 161 0;
#X connect 161 0 158 0;
#X connect 162 0 163 0;
#X connect 163 0 152 1;
#X connect 164 0 165 0;
#X connect 165 0 162 0;
#X connect 169 0 123 1;
#X connect 170 0 103 1;
#X connect 171 0 104 1;
#X connect 172 0 68 0;
#X connect 172 0 31 0;
#X connect 174 0 186 0;
#X connect 175 0 186 1;
#X connect 176 0 187 2;
#X connect 177 0 187 1;
#X connect 178 0 177 0;
#X connect 179 0 178 0;
#X connect 180 0 179 0;
#X connect 181 0 180 0;
#X connect 182 0 110 0;
#X connect 182 0 109 0;
#X connect 182 0 111 0;
#X connect 182 0 183 0;
#X connect 183 0 184 0;
#X connect 185 0 190 1;
#X connect 186 0 187 0;
#X connect 187 0 202 0;
#X connect 189 0 193 0;
#X connect 189 1 188 0;
#X connect 190 0 174 0;
#X connect 191 0 108 0;
#X connect 192 0 181 0;
#X connect 193 0 194 0;
#X connect 193 1 199 0;
#X connect 193 2 200 0;
#X connect 194 0 192 0;
#X connect 195 0 132 0;
#X connect 196 0 7 0;
#X connect 197 0 7 0;
#X connect 198 0 7 0;
#X connect 199 0 194 1;
#X connect 200 0 194 2;
#X connect 201 0 108 0;
#X connect 202 0 108 0;
#X connect 203 0 206 0;
#X connect 205 0 9 0;
#X connect 206 0 204 0;
